<svg
  width="20"
  height="19"
  viewBox="0 0 55 52"
  fill="none"
  xmlns="http://www.w3.org/2000/svg"
>
  <path
    d="M4.662 0.336748L52.825 23.3712C54.2485 24.052 54.8506 25.7579 54.1698 27.1815C53.8882 27.7702 53.4137 28.2447 52.825 28.5263L4.662 51.5607C3.23847 52.2415 1.53256 51.6395 0.851744 50.2159C0.555895 49.5973 0.492383 48.893 0.672803 48.2314L5.49006 30.5676C5.61075 30.1251 5.98431 29.7976 6.43882 29.7359L29.7773 26.5657C29.9785 26.5369 30.1451 26.4048 30.2221 26.2243L30.2622 26.0808C30.3005 25.813 30.1464 25.5621 29.9049 25.4678L29.7773 25.4343L6.46613 22.2642C6.01168 22.2024 5.6382 21.8749 5.51754 21.4324L0.672803 3.66604C0.257615 2.14368 1.15515 0.572994 2.67751 0.157806C3.33905 -0.0226135 4.04341 0.040899 4.662 0.336748Z"
    fill="current"
  />
</svg>
