<svg width="100%" height="100%" viewBox="0 0 65 66" fill="none" xmlns="http://www.w3.org/2000/svg">
<path d="M18.4408 34.3785C20.7972 34.3785 22.7074 32.3853 22.7074 29.9265C22.7074 27.4677 20.7972 25.4745 18.4408 25.4745C16.0843 25.4745 14.1741 27.4677 14.1741 29.9265C14.1741 32.3853 16.0843 34.3785 18.4408 34.3785Z" fill="current"/>
<path d="M32.9 34.3785C35.2564 34.3785 37.1667 32.3853 37.1667 29.9265C37.1667 27.4677 35.2564 25.4745 32.9 25.4745C30.5436 25.4745 28.6334 27.4677 28.6334 29.9265C28.6334 32.3853 30.5436 34.3785 32.9 34.3785Z" fill="current"/>
<path d="M47.1223 34.3785C49.4786 34.3785 51.3889 32.3853 51.3889 29.9265C51.3889 27.4677 49.4786 25.4745 47.1223 25.4745C44.7659 25.4745 42.8556 27.4677 42.8556 29.9265C42.8556 32.3853 44.7659 34.3785 47.1223 34.3785Z" fill="current"/>
<path fill-rule="evenodd" clip-rule="evenodd" d="M1.00745 12.8603C1.00745 6.38678 6.05717 0.961533 12.5148 0.961533H53.0482C59.5058 0.961533 64.5556 6.38676 64.5556 12.8603V43.53C64.5556 50.0032 59.5058 55.4286 53.0482 55.4286H51.863C51.5914 55.4286 51.4152 55.525 51.2976 55.6478C51.1751 55.7755 51.0445 56.0109 51.0445 56.3913V61.0906C51.0445 62.7072 50.0998 64.0794 48.7532 64.6942C47.3233 65.3471 45.5874 65.081 44.3692 63.81L44.3691 63.8099L36.547 55.6478C36.547 55.6478 36.547 55.6477 36.5469 55.6477C36.4653 55.5625 36.409 55.518 36.3775 55.4958C36.3482 55.4752 36.3322 55.4683 36.3244 55.4652L36.3241 55.465C36.314 55.461 36.2337 55.4286 35.9815 55.4286H12.5148C6.05716 55.4286 1.00745 50.0032 1.00745 43.53V12.8603ZM12.5148 5.96153C9.01689 5.96153 6.00745 8.94564 6.00745 12.8603V43.53C6.00745 47.4444 9.0169 50.4286 12.5148 50.4286H35.9815C36.6745 50.4286 37.4249 50.5192 38.1867 50.8249C38.9575 51.1343 39.6004 51.6077 40.1567 52.188L40.1568 52.1881L46.0445 58.3317V56.3913C46.0445 53.1332 48.4868 50.4286 51.863 50.4286H53.0482C56.5461 50.4286 59.5556 47.4444 59.5556 43.53V12.8603C59.5556 8.94566 56.5461 5.96153 53.0482 5.96153H12.5148Z" fill="current"/>
</svg>
