<svg width="64" height="64" viewBox="0 0 64 64" fill="none" xmlns="http://www.w3.org/2000/svg">
<path d="M29 15C29 13.3375 30.3375 12 32 12C33.6625 12 35 13.3375 35 15V30.4L45.6625 37.5C47.0375 38.425 47.4125 40.2875 46.3875 41.6625C45.575 43.0375 43.7125 43.4125 42.3375 42.3875L30.3375 34.3875C29.5 33.9375 29 33 29 31.8875V15ZM32 0C49.675 0 64 14.325 64 32C64 49.675 49.675 64 32 64C14.325 64 0 49.675 0 32C0 14.325 14.325 0 32 0ZM6 32C6 46.3625 17.6375 58 32 58C46.3625 58 58 46.3625 58 32C58 17.6375 46.3625 6 32 6C17.6375 6 6 17.6375 6 32Z" fill="black"/>
</svg>
