<svg width="128" height="88" viewBox="0 0 128 88" fill="none" xmlns="http://www.w3.org/2000/svg">
<path d="M63.7 87.3C34.5 87.3 11.2 70 0.0999756 43.9C11.3 17.8 34.6 0.5 63.7 0.5C92.8 0.5 116.2 17.8 127.4 43.9C116.2 70 92.8 87.3 63.7 87.3ZM63.7 76.9C86.8 76.9 106.7 63.4 116 43.9C106.7 24.4 86.8 10.9 63.7 10.9C40.7 10.9 20.8 24.4 11.5 43.9C20.7 63.4 40.6 76.9 63.7 76.9ZM39.5 43.9C39.5 30.5 50.3 19.7 63.6 19.7C77 19.7 87.8 30.6 87.8 43.9C87.8 57.3 76.9 68.1 63.6 68.1C50.3 68.1 39.5 57.2 39.5 43.9ZM65.1 37.8C65.1 42 68.4 45.4 72.7 45.4C76.8 45.4 80.2 42 80.2 37.8C80.2 33.7 76.9 30.3 72.7 30.3C68.5 30.3 65.1 33.6 65.1 37.8Z" fill="black"/>
</svg>
