<svg width="64" height="64" viewBox="0 0 64 64" fill="none" xmlns="http://www.w3.org/2000/svg">
<path d="M14.831 0.0798387C12.7688 0.2809 11.3356 0.717489 9.51955 1.68833C8.1958 2.39491 6.93221 3.35426 5.77256 4.5319C2.69838 7.66271 0.854973 11.7299 0.127454 16.9977C0.00711299 17.8536 -0.0475876 21.8231 0.0508735 22.771C0.751041 29.9115 4.31752 37.2417 10.8378 44.9567C13.1243 47.6624 16.3134 50.9425 19.4258 53.7804C22.7571 56.8193 27.3137 60.5418 31.356 63.5232L31.996 64L33.4347 62.92C40.8192 57.3822 46.8637 51.988 51.6554 46.6685C59.0072 38.4997 63.066 30.6813 63.9138 23.0582C64.0287 22.0185 64.0287 18.5257 63.9138 17.486C63.3176 12.0975 61.3429 7.65697 58.1156 4.42276C55.84 2.14789 52.9683 0.625576 50.1566 0.200475C48.5703 -0.0350533 45.3594 -0.0695209 43.9755 0.13154C40.9341 0.585364 38.6586 1.6079 36.29 3.58979C35.5516 4.20446 33.4401 6.42762 32.6251 7.45016C32.2969 7.86377 32.007 8.19696 31.9906 8.19121C31.9742 8.18547 31.6295 7.7776 31.2302 7.28931C30.2894 6.14614 28.4733 4.23893 27.702 3.58979C25.3554 1.61939 23.0744 0.591108 20.0166 0.13154C19.1578 0.00515893 15.9305 -0.0293087 14.831 0.0798387Z" fill="white"/>
</svg>
