<svg width="100%" height="100%" viewBox="0 0 60 60" fill="none" xmlns="http://www.w3.org/2000/svg">
<path d="M55.9893 25.6472L32.0323 4.76825C30.8543 3.74225 29.1003 3.74425 27.9263 4.77225L4.07131 25.6523C1.90331 27.5503 3.24631 31.1213 6.12731 31.1213C7.85031 31.1213 9.24731 32.5183 9.24731 34.2423V52.4723C9.24731 54.1963 10.6453 55.5923 12.3683 55.5923H23.3033V39.6153C23.3033 38.6403 24.0923 37.8513 25.0663 37.8513H34.9993C35.9733 37.8513 36.7633 38.6403 36.7633 39.6153V55.5933H47.1483C48.8723 55.5933 50.2693 54.1973 50.2693 52.4733V34.2432C50.2693 32.5192 51.6663 31.1223 53.3893 31.1223H53.9393C56.8233 31.1203 58.1643 27.5422 55.9893 25.6472Z" stroke="current" stroke-width="4"/>
</svg>
