<svg width="64" height="64" viewBox="0 0 64 64" fill="none" xmlns="http://www.w3.org/2000/svg">
<path d="M31.9375 6C37.4181 6 42.4871 7.06665 47.1445 9.19995C51.8019 11.3333 55.4839 14.2341 58.1903 17.9025C60.8968 21.5708 62.25 25.5721 62.25 29.9065C62.25 34.2407 60.8968 38.2478 58.1903 41.9275C55.4839 45.6071 51.8075 48.5136 47.1614 50.6469C42.5152 52.7801 37.4406 53.8469 31.9375 53.8469C30.2009 53.8469 28.4077 53.7226 26.5584 53.4744C18.5291 59.0503 14.2552 61.8721 13.7365 61.9398C13.4884 62.0301 13.2515 62.0187 13.026 61.906C12.9358 61.8382 12.8681 61.7479 12.823 61.635C12.7779 61.5221 12.7554 61.4206 12.7554 61.3302V61.1949C12.8907 60.3144 13.9169 56.6461 15.834 50.1898C11.4811 48.0226 8.02467 45.15 5.46481 41.5719C2.90494 37.9939 1.625 34.1054 1.625 29.9065C1.625 25.5721 2.97824 21.5708 5.68471 17.9025C8.39119 14.2341 12.0731 11.3333 16.7305 9.19995C21.3879 7.06665 26.4569 6 31.9375 6Z" fill="black"/>
</svg>
