<svg width="64" height="89" viewBox="0 0 64 89" fill="none" xmlns="http://www.w3.org/2000/svg">
<path d="M29.8323 0.0757145C19.5372 0.791413 10.2675 6.37249 4.81721 15.1467C3.22065 17.7136 1.96817 20.5626 1.17678 23.4323C-0.922148 31.0503 -0.178923 39.1088 3.2757 46.1075C4.59011 48.7708 5.8357 50.6495 7.92774 53.1269C8.16172 53.4091 13.1097 59.8435 18.911 67.4202C25.2284 75.6714 29.612 81.3351 29.8391 81.5415C31.1191 82.7114 32.8809 82.7114 34.1609 81.5415C34.388 81.3351 38.7716 75.6714 45.089 67.4202C50.8903 59.8435 55.8383 53.4091 56.0723 53.1269C58.1643 50.6495 59.4099 48.7708 60.7243 46.1075C64.6194 38.2142 65.0529 28.8895 61.9217 20.6796C59.4925 14.3278 55.2671 9.05636 49.5484 5.25077C43.871 1.4727 36.7209 -0.399124 29.8323 0.0757145ZM33.6791 15.5871C35.2206 15.7867 36.4181 16.1445 37.8151 16.8258C41.6206 18.6701 44.2219 22.0284 45.1234 26.2813C45.2955 27.0796 45.3093 27.2792 45.3161 28.8C45.3161 30.6374 45.2473 31.1742 44.8344 32.6194C43.7265 36.48 40.8017 39.7213 37.0581 41.2422C35.6748 41.8065 34.5462 42.068 32.9841 42.1987C30.9609 42.3708 28.9032 42.0404 26.9419 41.2422C23.1983 39.7213 20.2736 36.48 19.1656 32.6194C18.7527 31.1742 18.6839 30.6374 18.6839 28.8C18.6908 27.2792 18.7045 27.0796 18.8766 26.2813C19.6473 22.6546 21.6705 19.6404 24.671 17.6654C25.889 16.8671 27.6783 16.1032 29.0546 15.8004C30.4929 15.4839 32.2684 15.4013 33.6791 15.5871Z" fill="#9E9E9E"/>
</svg>
