<svg width="64" height="64" viewBox="0 0 64 64" fill="none" xmlns="http://www.w3.org/2000/svg">
<path d="M31.5 62L5 48.5V15.5L20.5 7.5L31.5 2L45 8.75L58.5 15.5L60 48.5L31.5 62Z" fill="#DDE6F8"/>
<path d="M5 15.5V48.5L31.5 62M5 15.5L20.5 7.5M5 15.5L18.25 22.75M31.5 30V62M31.5 30L45 22.75M31.5 30L18.25 22.75M31.5 62L60 48.5L58.5 15.5M58.5 15.5L45 22.75M58.5 15.5L45 8.75M20.5 7.5L31.5 2L45 8.75M20.5 7.5L32.75 15.125M45 22.75V33M45 22.75L32.75 15.125M32.75 15.125L18.25 22.75M32.75 15.125L45 8.75M18.25 22.75V33" stroke="#66A2FB" stroke-width="4" stroke-linecap="round" stroke-linejoin="round"/>
</svg>
