<svg width="100%" height="100%" viewBox="0 0 64 64" fill="none" xmlns="http://www.w3.org/2000/svg">
<path fill-rule="evenodd" clip-rule="evenodd" d="M8 48C8 46.5273 9.19391 45.3333 10.6667 45.3333H53.3333C54.8061 45.3333 56 46.5273 56 48C56 49.4728 54.8061 50.6667 53.3333 50.6667H10.6667C9.19391 50.6667 8 49.4728 8 48Z" fill="current"/>
<path fill-rule="evenodd" clip-rule="evenodd" d="M8 32C8 30.5273 9.19391 29.3333 10.6667 29.3333H53.3333C54.8061 29.3333 56 30.5273 56 32C56 33.4728 54.8061 34.6667 53.3333 34.6667H10.6667C9.19391 34.6667 8 33.4728 8 32Z" fill="current"/>
<path fill-rule="evenodd" clip-rule="evenodd" d="M8 16C8 14.5272 9.19391 13.3333 10.6667 13.3333H53.3333C54.8061 13.3333 56 14.5272 56 16C56 17.4727 54.8061 18.6666 53.3333 18.6666H10.6667C9.19391 18.6666 8 17.4727 8 16Z" fill="current"/>
</svg>
