<svg width="100%" height="100%" viewBox="0 0 80 80" fill="none" xmlns="http://www.w3.org/2000/svg">
<path fill-rule="evenodd" clip-rule="evenodd" d="M40 75C59.33 75 75 59.33 75 40C75 20.67 59.33 5 40 5C20.67 5 5 20.67 5 40C5 59.33 20.67 75 40 75ZM40 80C62.0914 80 80 62.0914 80 40C80 17.9086 62.0914 0 40 0C17.9086 0 0 17.9086 0 40C0 62.0914 17.9086 80 40 80Z" fill="current"/>
<path fill-rule="evenodd" clip-rule="evenodd" d="M40 64C53.2548 64 64 53.2548 64 40C64 26.7452 53.2548 16 40 16C26.7452 16 16 26.7452 16 40C16 53.2548 26.7452 64 40 64ZM40 69C56.0163 69 69 56.0163 69 40C69 23.9837 56.0163 11 40 11C23.9837 11 11 23.9837 11 40C11 56.0163 23.9837 69 40 69Z" fill="current"/>
<path fill-rule="evenodd" clip-rule="evenodd" d="M26.4213 27.0856C27.4786 26.7659 28.5948 27.3639 28.9145 28.4212L33.569 43.8171L38.098 29.8818C38.3632 29.0657 39.1195 28.5097 39.9776 28.5001C40.8357 28.4905 41.6043 29.0293 41.8878 29.8393L46.861 44.0487L51.5856 28.4212C51.9053 27.3639 53.0215 26.7659 54.0788 27.0856C55.1361 27.4052 55.7341 28.5215 55.4145 29.5788L48.9145 51.0788C48.6639 51.9075 47.9087 52.4809 47.0431 52.4995C46.1776 52.5182 45.3983 51.9778 45.1123 51.1607L40.0702 36.7547L35.4021 51.1182C35.132 51.9494 34.3534 52.5089 33.4794 52.4999C32.6054 52.4909 31.8385 51.9154 31.5856 51.0788L25.0856 29.5788C24.766 28.5215 25.364 27.4052 26.4213 27.0856Z" fill="current"/>
<path fill-rule="evenodd" clip-rule="evenodd" d="M23 34.5C23 33.3954 23.8954 32.5 25 32.5H55C56.1046 32.5 57 33.3954 57 34.5C57 35.6046 56.1046 36.5 55 36.5H25C23.8954 36.5 23 35.6046 23 34.5Z" fill="current"/>
</svg>
