<svg width="100%" height="100%" viewBox="0 0 55 55" fill="none" xmlns="http://www.w3.org/2000/svg">
<path d="M28.6554 42H11.2806C10.2734 42 6.15522 41 7.15532 37C8.15542 33 11.2806 32.5 11.2806 30.5C11.2806 28.5 11.2806 21.5 11.2806 21.5C11.2806 8.3 22.197 5 27.6552 5" stroke="current" stroke-width="5" stroke-linecap="round" stroke-linejoin="round"/>
<path d="M27 42H44.3748C45.382 42 49.5002 41 48.5001 37C47.5 33 44.3748 32.5 44.3748 30.5C44.3748 28.5 44.3748 21.5 44.3748 21.5C44.3748 8.3 33.4584 5 28.0002 5" stroke="current" stroke-width="5" stroke-linecap="round" stroke-linejoin="round"/>
<path d="M21 44.5C21 53.8333 34 53.8333 34 44.5" stroke="current" stroke-width="4" stroke-linecap="round" stroke-linejoin="round"/>
</svg>
