<svg width="100%" height="100%" viewBox="0 0 60 65" fill="none" xmlns="http://www.w3.org/2000/svg">
<path fill-rule="evenodd" clip-rule="evenodd" d="M28.1056 0.711146C28.664 0.431915 29.3209 0.429517 29.8813 0.704665L57.3813 14.2047C58.0468 14.5313 58.477 15.1993 58.4991 15.9403L59.4991 49.4403C59.5228 50.2345 59.0742 50.9674 58.3562 51.3075L29.8562 64.8075C29.3008 65.0706 28.6553 65.0637 28.1056 64.7888L1.10557 51.2889C0.428005 50.9501 0 50.2575 0 49.5V16C0 15.2425 0.428005 14.5499 1.10557 14.2111L28.1056 0.711146ZM29.0081 4.73199L21.6989 8.3866L42.8158 20.7222L52.0277 16.0325L29.0081 4.73199ZM54.5951 19.2141L44.75 24.2261V33C44.75 34.1046 43.8546 35 42.75 35C41.6454 35 40.75 34.1046 40.75 33V26.2624L31 31.2261V59.8396L55.4619 48.2524L54.5951 19.2141ZM27 59.7639V31.2158L4 19.2899V48.2639L27 59.7639ZM6.40733 16.0324L29.0084 27.7515L38.5785 22.8794L17.4261 10.523L6.40733 16.0324Z" fill="current"/>
</svg>
