<svg width="64" height="64" viewBox="0 0 64 64" fill="none" xmlns="http://www.w3.org/2000/svg">
<path d="M47.156 52V33.998C47.156 25.64 40.358 18.842 32 18.842C23.642 18.842 16.844 25.64 16.844 33.998V52H47.156ZM32 29.84C29.708 29.84 27.844 31.704 27.844 33.996C27.844 35.1 26.948 35.996 25.844 35.996C24.74 35.996 23.844 35.102 23.844 33.996C23.844 29.498 27.504 25.84 32 25.84C33.104 25.84 34 26.736 34 27.84C34 28.944 33.104 29.84 32 29.84Z" fill="#F25949"/>
<path d="M32 25.84C27.502 25.84 23.844 29.5 23.844 33.996C23.844 35.1 24.74 35.996 25.844 35.996C26.948 35.996 27.844 35.102 27.844 33.996C27.844 31.704 29.708 29.84 32 29.84C33.104 29.84 34 28.944 34 27.84C34 26.736 33.104 25.84 32 25.84Z" fill="white"/>
<path d="M50 52H47.156H16.844H14C12.896 52 12 52.894 12 54C12 55.106 12.896 56 14 56H50C51.106 56 52 55.106 52 54C52 52.894 51.106 52 50 52Z" fill="#8B9CA5"/>
<path d="M32 17.102C33.104 17.102 34 16.206 34 15.102V10C34 8.896 33.104 8 32 8C30.896 8 30 8.896 30 10V15.102C30 16.206 30.896 17.102 32 17.102Z" fill="#FBC34E"/>
<path d="M58 34.462H52.988C51.882 34.462 50.988 35.356 50.988 36.462C50.988 37.568 51.882 38.462 52.988 38.462H58C59.106 38.462 60 37.568 60 36.462C60 35.356 59.106 34.462 58 34.462Z" fill="#FBC34E"/>
<path d="M13.012 36.462C13.012 35.356 12.116 34.462 11.012 34.462H6C4.896 34.462 4 35.356 4 36.462C4 37.568 4.896 38.462 6 38.462H11.012C12.116 38.462 13.012 37.568 13.012 36.462Z" fill="#FBC34E"/>
<path d="M15.7319 22.76C16.1239 23.158 16.642 23.358 17.158 23.358C17.664 23.358 18.1699 23.168 18.5599 22.784C19.3479 22.01 19.3599 20.744 18.5859 19.956L15.0419 16.35C14.2659 15.56 12.9999 15.55 12.2139 16.324C11.4259 17.098 11.4139 18.364 12.1879 19.152L15.7319 22.76Z" fill="#FBC34E"/>
<path d="M46.8401 23.358C47.3581 23.358 47.8761 23.158 48.2661 22.76L51.8101 19.152C52.5861 18.364 52.5741 17.098 51.7861 16.324C50.9941 15.55 49.7301 15.56 48.9581 16.35L45.4141 19.958C44.6381 20.746 44.6501 22.012 45.4381 22.786C45.8281 23.168 46.3341 23.358 46.8401 23.358Z" fill="#FBC34E"/>
</svg>
