<svg width="100%" height="100%" viewBox="0 0 32 32" fill="none" xmlns="http://www.w3.org/2000/svg">
<path d="M0.539139 0.587454C0.884796 0.242729 1.35335 0.0491012 1.84188 0.0491012C2.33041 0.0491012 2.79897 0.242729 3.14463 0.587454L15.9754 13.3995L28.8062 0.587454C29.0315 0.345142 29.3181 0.168003 29.6358 0.0747005C29.9535 -0.0186023 30.2905 -0.0246147 30.6114 0.0572973C30.9322 0.139209 31.225 0.306014 31.4588 0.540134C31.6927 0.774255 31.859 1.06702 31.9402 1.3876C32.022 1.70761 32.0162 2.04372 31.9232 2.36069C31.8302 2.67766 31.6535 2.96382 31.4117 3.18914L18.5809 16.0012L31.4117 28.8133C31.6544 29.0383 31.8318 29.3245 31.9252 29.6418C32.0186 29.959 32.0246 30.2955 31.9426 30.6159C31.8606 30.9362 31.6935 31.2286 31.4591 31.4621C31.2246 31.6956 30.9314 31.8616 30.6104 31.9427C30.2899 32.0245 29.9533 32.0186 29.6359 31.9258C29.3184 31.8329 29.0319 31.6565 28.8062 31.415L15.9754 18.6029L3.14463 31.415C2.79523 31.7406 2.33288 31.9179 1.85506 31.9097C1.37725 31.9015 0.921309 31.7083 0.583383 31.3708C0.245474 31.0334 0.0519944 30.5781 0.0437404 30.101C0.0354864 29.6239 0.213103 29.1622 0.539139 28.8133L13.3699 16.0012L0.539139 3.18914C0.193911 2.84399 0 2.37612 0 1.8883C0 1.40048 0.193911 0.932608 0.539139 0.587454Z" fill="#000"/>
</svg>
